<svg width="24" height="24" viewBox="0 0 24 24" fill="none" xmlns="http://www.w3.org/2000/svg">
<g clip-path="url(#clip0_830_3270)">
<path d="M23.9997 11.5C23.9997 10.8104 23.7957 10.1362 23.4133 9.56228C23.0309 8.98839 22.4872 8.5405 21.8507 8.27503C21.4496 5.95486 20.2406 3.85139 18.4377 2.33692C16.6348 0.822455 14.3543 -0.00534826 11.9997 2.64045e-05C9.64524 -0.00538873 7.3648 0.822273 5.56192 2.33654C3.75904 3.85081 2.54997 5.95404 2.14868 8.27403C1.42374 8.5801 0.823092 9.12153 0.443693 9.81092C0.0642936 10.5003 -0.0717195 11.2975 0.0576086 12.0737C0.186937 12.8499 0.57406 13.5598 1.15649 14.089C1.73892 14.6181 2.48266 14.9355 3.26768 14.99C3.65378 15.8186 4.14846 16.592 4.73868 17.29C4.22121 17.5297 3.78278 17.912 3.47478 18.3919C3.16679 18.8719 3.00198 19.4297 2.99968 20V24H20.9997V20C20.9977 19.4297 20.8331 18.8717 20.5253 18.3916C20.2174 17.9114 19.7791 17.529 19.2617 17.289C19.8513 16.5908 20.3456 15.8174 20.7317 14.989C21.6168 14.929 22.4463 14.5356 23.0528 13.8881C23.6593 13.2406 23.9977 12.3872 23.9997 11.5ZM20.2477 12.973L19.4127 12.825L19.1307 13.625C18.2147 16.221 15.1297 19 11.9997 19C8.86968 19 5.78568 16.22 4.86868 13.624L4.58868 12.831L3.75868 12.971C3.6733 12.9879 3.58666 12.9976 3.49968 13C3.13012 12.9933 2.77607 12.8504 2.50541 12.5987C2.23476 12.347 2.06657 12.0042 2.03311 11.6361C1.99965 11.268 2.10326 10.9005 2.32409 10.6041C2.54491 10.3077 2.86739 10.1033 3.22968 10.03L3.96768 9.89603L4.04568 9.15203C4.18794 7.78672 4.68047 6.48131 5.47553 5.36231C6.27059 4.2433 7.34122 3.34864 8.58368 2.76503C8.46986 3.2767 8.47243 3.8074 8.59119 4.31794C8.70994 4.82848 8.94186 5.30584 9.26981 5.71475C9.59776 6.12366 10.0134 6.45369 10.4859 6.68047C10.9585 6.90724 11.476 7.02498 12.0002 7.02498C12.5244 7.02498 13.0418 6.90724 13.5144 6.68047C13.987 6.45369 14.4026 6.12366 14.7305 5.71475C15.0585 5.30584 15.2904 4.82848 15.4092 4.31794C15.5279 3.8074 15.5305 3.2767 15.4167 2.76503C16.6587 3.34828 17.729 4.24247 18.5239 5.36094C19.3188 6.47942 19.8113 7.78427 19.9537 9.14903L20.0317 9.89303L20.7697 10.026C21.1362 10.0951 21.4638 10.2983 21.6886 10.5959C21.9134 10.8935 22.0193 11.2642 21.9856 11.6357C21.9519 12.0071 21.781 12.3527 21.5062 12.6049C21.2315 12.8572 20.8726 12.998 20.4997 13C20.4151 12.9977 20.3308 12.9887 20.2477 12.973Z" fill="#525252"/>
<path d="M9.49976 13C10.3282 13 10.9998 12.3284 10.9998 11.5C10.9998 10.6716 10.3282 10 9.49976 10C8.67133 10 7.99976 10.6716 7.99976 11.5C7.99976 12.3284 8.67133 13 9.49976 13Z" fill="#525252"/>
<path d="M14.5002 13C15.3287 13 16.0002 12.3284 16.0002 11.5C16.0002 10.6716 15.3287 10 14.5002 10C13.6718 10 13.0002 10.6716 13.0002 11.5C13.0002 12.3284 13.6718 13 14.5002 13Z" fill="#525252"/>
</g>
<defs>
<clipPath id="clip0_830_3270">
<rect width="24" height="24" fill="white"/>
</clipPath>
</defs>
</svg>
