<svg width="45" height="45" viewBox="0 0 45 45" fill="none" xmlns="http://www.w3.org/2000/svg">
<rect width="45" height="45" rx="5" fill="#59C55E" fill-opacity="0.8"/>
<path d="M33.75 27.7459L30.0949 33.6685L28.5886 32.7372L32.2437 26.8146L33.75 27.7459ZM19.3955 14.0117L18.4678 12.5L12.5 16.1524L13.4242 17.6632L19.3955 14.0117ZM30.3864 17.0828L32.07 15.3993L30.8188 14.1446L29.1433 15.8201C27.9334 14.8607 26.4541 14.3033 24.912 14.2258C23.3698 14.1483 21.842 14.5545 20.5421 15.3877L14.5504 18.7097C14.2315 18.9206 13.9636 19.1998 13.7659 19.527C13.5682 19.8542 13.4458 20.2213 13.4074 20.6017C13.3691 20.9821 13.4158 21.3662 13.5442 21.7263C13.6726 22.0864 13.8795 22.4134 14.1499 22.6837L23.5282 32.0656C23.766 32.306 24.0492 32.4969 24.3613 32.6272C24.6734 32.7575 25.0082 32.8247 25.3464 32.8249C25.4575 32.8247 25.5684 32.8179 25.6787 32.8045C26.0677 32.7571 26.4406 32.6207 26.7683 32.4059C27.0961 32.191 27.37 31.9036 27.5687 31.5658L31.0492 25.3756C31.7719 24.083 32.0946 22.6049 31.9767 21.1286C31.8587 19.6524 31.3052 18.2443 30.3864 17.0828ZM15.1636 28.6453C15.1584 29.3713 15.342 30.0861 15.6965 30.7197C16.0511 31.3533 16.5642 31.8838 17.1857 32.2591C17.8071 32.6344 18.5155 32.8417 19.2413 32.8606C19.967 32.8795 20.6852 32.7093 21.3254 32.3668L15.6598 26.6959C15.338 27.2955 15.1676 27.9648 15.1636 28.6453Z" fill="white"/>
</svg>
