<svg width="24" height="24" viewBox="0 0 24 24" fill="none" xmlns="http://www.w3.org/2000/svg">
<g clip-path="url(#clip0_830_3270)">
<path d="M20.2015 13.2187L19.5779 13.1082L19.3665 13.7081L19.3664 13.7082C18.8903 15.0576 17.8585 16.4381 16.5514 17.4814C15.2442 18.5248 13.6371 19.25 11.9997 19.25C10.3622 19.25 8.75535 18.5245 7.44831 17.4809C6.14135 16.4374 5.10956 15.0566 4.63295 13.7073L4.63294 13.7073L4.42294 13.1125L3.80356 13.217C3.70569 13.2361 3.60642 13.2471 3.50674 13.2499L3.49513 13.2503L3.49513 13.25C3.06399 13.2421 2.65092 13.0754 2.33516 12.7817C2.0194 12.4881 1.82318 12.0882 1.78413 11.6587C1.74509 11.2293 1.86598 10.8005 2.12361 10.4547C2.38124 10.1089 2.75747 9.87045 3.18013 9.78499L3.185 9.784L3.18501 9.78405L3.73858 9.68354L3.79702 9.12612L20.2015 13.2187ZM20.2015 13.2187C20.2019 13.2188 20.2023 13.2189 20.2027 13.219C20.2984 13.2369 20.3954 13.2472 20.4927 13.2499L20.4927 13.2501L20.501 13.25C20.9361 13.2477 21.3548 13.0834 21.6753 12.7891C21.9958 12.4948 22.1952 12.0916 22.2345 11.6583C22.2739 11.2249 22.1504 10.7925 21.8881 10.4452C21.6258 10.098 21.2436 9.86099 20.816 9.78035L20.814 9.77999L20.2607 9.68028L20.2023 9.12309C20.0555 7.7155 19.5475 6.3697 18.7277 5.21612C17.9079 4.06254 16.804 3.14029 15.5229 2.53874L15.0621 2.32233L15.1726 2.81931C15.2783 3.29443 15.2759 3.78722 15.1657 4.2613C15.0554 4.73538 14.84 5.17863 14.5355 5.55834C14.231 5.93804 13.8451 6.24449 13.4062 6.45507C12.9674 6.66565 12.4869 6.77498 12.0002 6.77498C11.5134 6.77498 11.0329 6.66565 10.5941 6.45507C10.1553 6.24449 9.76936 5.93804 9.46483 5.55834C9.16031 5.17863 8.94496 4.73538 8.83469 4.2613C8.72441 3.78722 8.72203 3.29443 8.82771 2.81931L8.93827 2.32226L8.47739 2.53875C7.19595 3.14067 6.09173 4.0634 5.27173 5.21751C4.45176 6.37158 3.94379 7.71788 3.79704 9.12596L20.2015 13.2187ZM20.7497 20.0009L20.7497 23.75H3.24968V20.0005C3.25189 19.4779 3.40295 18.9668 3.68519 18.527C3.96752 18.087 4.36941 17.7366 4.84376 17.5169L5.14133 17.379L4.92958 17.1286C4.35368 16.4476 3.87101 15.6929 3.49428 14.8844L3.43202 14.7508L3.28499 14.7406C2.55605 14.69 1.86542 14.3953 1.3246 13.9039C0.783771 13.4126 0.4243 12.7533 0.304209 12.0326C0.184119 11.3118 0.310417 10.5716 0.662716 9.93146C1.01501 9.29131 1.57276 8.78855 2.24591 8.50434L2.37174 8.45122L2.39502 8.31664C2.78625 6.0548 3.96502 4.00428 5.72271 2.52797C7.4804 1.05166 9.70368 0.244746 11.9991 0.250026L11.9997 2.64045e-05L12.0002 0.250026C14.2958 0.244786 16.5192 1.05184 18.2769 2.52835C20.0346 4.00485 21.2133 6.0556 21.6043 8.31761L21.6277 8.45291L21.7544 8.50576C22.3454 8.75224 22.8502 9.16808 23.2052 9.70091C23.5602 10.2336 23.7496 10.8594 23.7497 11.4995C23.7478 12.3234 23.4336 13.1159 22.8703 13.7172C22.3071 14.3185 21.5368 14.6839 20.7148 14.7396L20.5675 14.7496L20.5051 14.8834C20.1284 15.6917 19.646 16.4464 19.0707 17.1277L18.8593 17.378L19.1565 17.5158C19.6308 17.7358 20.0326 18.0864 20.3148 18.5265C20.5969 18.9665 20.7477 19.4778 20.7497 20.0004C20.7497 20.0006 20.7497 20.0007 20.7497 20.0009Z" stroke="black" stroke-width="0.5"/>
<path d="M10.7498 11.5C10.7498 12.1904 10.1901 12.75 9.49976 12.75C8.8094 12.75 8.24976 12.1904 8.24976 11.5C8.24976 10.8096 8.8094 10.25 9.49976 10.25C10.1901 10.25 10.7498 10.8096 10.7498 11.5Z" stroke="black" stroke-width="0.5"/>
<path d="M15.7502 11.5C15.7502 12.1904 15.1906 12.75 14.5002 12.75C13.8099 12.75 13.2502 12.1904 13.2502 11.5C13.2502 10.8096 13.8099 10.25 14.5002 10.25C15.1906 10.25 15.7502 10.8096 15.7502 11.5Z" stroke="black" stroke-width="0.5"/>
</g>
<defs>
<clipPath id="clip0_830_3270">
<rect width="24" height="24" fill="white"/>
</clipPath>
</defs>
</svg>
