<svg width="11" height="10" viewBox="0 0 11 10" fill="none" xmlns="http://www.w3.org/2000/svg">
<path d="M6.79288 2.29289C7.18341 1.90237 7.81657 1.90237 8.2071 2.29289C8.59762 2.68342 8.59762 3.31658 8.2071 3.70711L6.7071 5.20711C6.31657 5.59763 5.68341 5.59763 5.29288 5.20711C5.09762 5.01184 4.78104 5.01184 4.58578 5.20711C4.39052 5.40237 4.39052 5.71895 4.58578 5.91421C5.36683 6.69526 6.63316 6.69526 7.4142 5.91421L8.91421 4.41421C9.69525 3.63316 9.69525 2.36683 8.91421 1.58579C8.13316 0.804738 6.86683 0.804738 6.08578 1.58579L5.33578 2.33579C5.14052 2.53105 5.14052 2.84763 5.33578 3.04289C5.53104 3.23816 5.84762 3.23816 6.04288 3.04289L6.79288 2.29289Z" fill="#525252"/>
<path d="M4.29289 4.79289C4.68342 4.40237 5.31658 4.40237 5.70711 4.79289C5.90237 4.98816 6.21895 4.98816 6.41421 4.79289C6.60948 4.59763 6.60948 4.28105 6.41421 4.08579C5.63316 3.30474 4.36683 3.30474 3.58579 4.08579L2.08579 5.58579C1.30474 6.36684 1.30474 7.63317 2.08579 8.41421C2.86683 9.19526 4.13316 9.19526 4.91421 8.41421L5.66421 7.66421C5.85948 7.46895 5.85948 7.15237 5.66421 6.95711C5.46895 6.76184 5.15237 6.76184 4.95711 6.95711L4.20711 7.70711C3.81658 8.09763 3.18342 8.09763 2.79289 7.70711C2.40237 7.31658 2.40237 6.68342 2.79289 6.29289L4.29289 4.79289Z" fill="#525252"/>
</svg>
