<svg width="21" height="20" viewBox="0 0 21 20" fill="none" xmlns="http://www.w3.org/2000/svg">
<path d="M14.6667 14.1667H16.3333C17.2538 14.1667 18 13.4205 18 12.5V9.16667C18 8.24619 17.2538 7.5 16.3333 7.5H4.66667C3.74619 7.5 3 8.24619 3 9.16667V12.5C3 13.4205 3.74619 14.1667 4.66667 14.1667H6.33333M8 17.5H13C13.9205 17.5 14.6667 16.7538 14.6667 15.8333V12.5C14.6667 11.5795 13.9205 10.8333 13 10.8333H8C7.07953 10.8333 6.33333 11.5795 6.33333 12.5V15.8333C6.33333 16.7538 7.07953 17.5 8 17.5ZM14.6667 7.5V4.16667C14.6667 3.24619 13.9205 2.5 13 2.5H8C7.07953 2.5 6.33333 3.24619 6.33333 4.16667V7.5H14.6667Z" stroke="white" stroke-linecap="round" stroke-linejoin="round"/>
</svg>
